 http://leetleech.org/images/95963806684600170929.jpg

Screens:
 
http://leetleech.org/images/62544563595577745804.jpg 
http://leetleech.org/images/95076984518576857776.jpg 
http://leetleech.org/images/34856910382686815490.jpg

Alternative:
 
http://www.postimg.com/image/134000/1-133166.jpg 
http://www.postimg.com/image/134000/2-133167.jpg 
http://www.postimg.com/image/134000/4-133168.jpg
 
http://www.postimg.com/image/134000/screencaps-133175.jpg

The Last Stand (2013) HDRip XviD-MAX
Format                                   : AVI
Format/Info                              : Audio Video Interleave
Format profile                           : OpenDML
Format settings                          : rec
File size                                : 1.36 GiB
Duration                                 : 1h 47mn
Overall bit rate                         : 1 821 Kbps
Writing application                      : VirtualDubMod 1.5.10.2 (build 2542/release)
Writing library                          : VirtualDubMod build 2542/release
Original source form                     : MAX TORRENTZ
Copyright                                : SIGISMUNT

Video
ID                                       : 0
Format                                   : MPEG-4 Visual
Format profile                           : Advanced Simple@L5
Format settings, BVOP                    : 2
Format settings, QPel                    : No
Format settings, GMC                     : No warppoints
Format settings, Matrix                  : Default (MPEG)
Muxing mode                              : Packed bitstream
Codec ID                                 : XVID
Codec ID/Hint                            : XviD
Duration                                 : 1h 47mn
Bit rate                                 : 1 496 Kbps
Width                                    : 720 pixels
Height                                   : 304 pixels
Display aspect ratio                     : 2.35:1
Frame rate                               : 24.000 fps
Color space                              : YUV
Chroma subsampling                       : 4:2:0
Bit depth                                : 8 bits
Scan type                                : Progressive
Compression mode                         : Lossy
Bits/(Pixel*Frame)                       : 0.285
Stream size                              : 1.12 GiB (82%)
Writing library                          : XviD 1.2.1 (UTC 2008-12-04)

Audio
ID                                       : 1
Format                                   : AC-3
Format/Info                              : Audio Coding 3
Mode extension                           : CM (complete main)
Format settings, Endianness              : Big
Codec ID                                 : 2000
Duration                                 : 1h 47mn
Bit rate mode                            : Constant
Bit rate                                 : 320 Kbps
Channel(s)                               : 6 channels
Channel positions                        : Front: L C R, Side: L R, LFE
Sampling rate                            : 48.0 KHz
Bit depth                                : 16 bits
Compression mode                         : Lossy
Stream size                              : 245 MiB (18%)
Alignment                                : Aligned on interleaves
Interleave, duration                     : 64 ms (1.54 video frames)
Interleave, preload duration             : 192 ms

Source: Source: Bluray HDClub (perfect a/v/sync quality,sample included)
This torrent is not seedbox supported,please seed it to the MAX

Note:If you have something to offer as early releases,seedboxes,
links,accounts,etc please contact us on torentz 3xforum ro

The Last Stand (2013) HDRip XviD-MAX Torrent Free Download
 
http://thepiratebay.se/user/extremezone/0/7

How To Get Your Maxspeed (uTorrent)

Torrent Client - Preferences - Bandwidth - Number of connections - Set aprox. 500 for each
Torrent Client - Preferences - BiTorrent - Protocol Encryption - Forced
Bandwidth Allocation - High (Set download/upload limit - Unlimited)
Stop Other Active Torrents - Start downloading and wait for connections.
Enjoy and Seed for at least 1:1 ratio. Don't forget to say thanks/leave reviews.
Before downloading you should check/google search sample "release name""sample".
Greets to all actual/future p2p/scene QUALITY groups and affiliate websites.
Don't trust IMDb robot or bad ratings,always watch some trailers first.
Ignore stupid comments/fake/mislabeled/no-DVDrips/CAM/TS/RAR uploads.
Please spread this release/torrent to your friends/forums/etc.
If you need translation subs visit some subtitles sites.
Report if you see online streaming or other spam links.
Recommended movie player VLC PLAYER.